<?xml version="1.0" encoding="utf-8"?>
<!-- Generator: Adobe Illustrator 25.1.0, SVG Export Plug-In . SVG Version: 6.00 Build 0)  -->
<svg version="1.1" id="Layer_1" xmlns="http://www.w3.org/2000/svg" xmlns:xlink="http://www.w3.org/1999/xlink" x="0px" y="0px"
	 viewBox="0 0 1024 1024" style="enable-background:new 0 0 1024 1024;" xml:space="preserve">
<style type="text/css">
	.st0{fill:#DDE8FD;}
	.st1{fill:#3A49CD;}
	.st2{fill:#93B3F4;}
	.st3{fill:#FA7269;}
	.st4{fill:#FC9290;}
	.st5{fill:#E75755;}
	.st6{fill:#060632;}
	.st7{fill:#ED6966;}
	.st8{fill:#030231;}
	.st9{fill:#0B0754;}
	.st10{fill:#010117;}
	.st11{fill:#EA8888;}
	.st12{fill:#120E59;}
	.st13{fill:#0D0D38;}
	.st14{fill:#FDB3B1;}
	.st15{fill:#12123C;}
	.st16{fill:#FC9492;}
	.st17{fill:#3662C1;}
	.st18{fill:#BED2FA;}
	.st19{fill:#5076C9;}
	.st20{fill:#FCA09E;}
	.st21{fill:#B15252;}
	.st22{fill:#A83F3F;}
	.st23{fill:#9E332E;}
	.st24{fill:#FFFFFF;}
</style>
<g>
	<g>
		<path class="st0" d="M64.5,662.7c0,0-56.1-138.6,26-221.4c105.8-106.8,242.5-17.5,293.8-20.1c51.3-2.6,54.2-105.1,207.5-117.3
			C710.3,294.4,905,293.7,863.5,461c-31.6,127.3,144.1,61.3,109.9,201.9L64.5,662.7z"/>
		<g>
			<g>
				<path class="st1" d="M236.4,578.1c0,0-13.3-15.6-0.8-25.5c0,0,9.1-5.5,16.6-5.1c0,0-10.6,17.7-7.1,19.5
					c3.4,1.8,10.3-20.6,10.3-20.6s20.8-2,27.5,1.2c0,0-17.8,14.6-14,15.4c3.7,0.9,23-13.4,23-13.4s19.4,3.3,18.3,15.1
					c-1,11.8-7.7,15.5-10.6,15.1c-2.9-0.3-20.1-6.9-20.5-4.5c-0.4,2.4,10,10.3,17.2,10.6c0,0-13.7,15.1-22.7,10.7
					c-9.1-4.3-9.8-11.2-15.5-13.8c-5.7-2.6-10.5-2.6-8.2,0.1c2.3,2.6,12.6,5.2,15.8,10.9c3.2,5.7,6.1,9.6-3.3,8.2
					c-9.4-1.4-24.7-8.3-25.3-16.1C236.4,578.1,236.4,578.1,236.4,578.1z"/>
				<g>
					<path class="st1" d="M300.6,565.1c0,0-52.6-2-64.2,13c0,0-2.6,7.7-10.5,14.7l-1.2,3.4c0,0,9.1-9.6,12.4-10.2
						C237.1,586,232,567.4,300.6,565.1z"/>
					<path class="st1" d="M226,592.8c0,0-11.3,8.4-12.1,23.3l2,0.2c0,0,3.6-15.4,10.1-21.5C232.6,588.8,226,592.8,226,592.8z"/>
				</g>
			</g>
			<g>
				<path class="st2" d="M189.8,558.6c0,0,21.2-11.9,11.3-28c0,0-7.9-9.9-16.4-12.5c0,0,4.5,24.1,0,24.6c-4.5,0.6-3.1-27.2-3.1-27.2
					s-22.4-10.8-31.1-9.9c0,0,13.9,23.5,9.3,22.9c-4.5-0.6-20.1-24.3-20.1-24.3s-22.9-4.2-26.6,9.3c-3.7,13.6,2.3,20.4,5.7,21.2
					c3.4,0.8,25.2,0.6,24.6,3.4c-0.6,2.8-15.3,7.4-23.5,4.8c0,0,9.1,22.4,20.9,21.2c11.9-1.1,15.6-8.5,22.9-9.1
					c7.4-0.6,12.7,1.4,9.1,3.4c-3.7,2-16.1,0.6-22.1,5.7c-5.9,5.1-10.8,8.2,0.3,10.4c11,2.3,30.8,0.8,34.8-7.6
					C189.8,558.6,189.8,558.6,189.8,558.6z"/>
				<g>
					<path class="st2" d="M123.6,517.8c0,0,59.4,19.2,66.2,40.7c0,0-0.3,9.6,5.7,20.7v4.2c0,0-6.2-14.4-9.6-16.4
						C185.8,567.1,199.1,548.4,123.6,517.8z"/>
					<path class="st2" d="M195.4,579.2c0,0,9.2,13.9,3.9,30.9l-2.4-0.6c0,0,2.3-18.7-2.5-28C189.7,572,195.4,579.2,195.4,579.2z"/>
				</g>
			</g>
			<g>
				<path class="st2" d="M223.5,542.2c0,0-28-15.7-14.9-36.9c0,0,10.4-13.1,21.6-16.4c0,0-6,31.7,0,32.5c6,0.7,4.1-35.8,4.1-35.8
					s29.5-14.2,41-13.1c0,0-18.3,31-12.3,30.2c6-0.7,26.5-32.1,26.5-32.1s30.2-5.6,35.1,12.3c4.8,17.9-3,26.9-7.5,28
					c-4.5,1.1-33.2,0.7-32.5,4.5c0.7,3.7,20.1,9.7,31,6.3c0,0-11.9,29.5-27.6,28c-15.7-1.5-20.5-11.2-30.2-11.9
					c-9.7-0.7-16.8,1.9-11.9,4.5c4.8,2.6,21.3,0.9,29.1,7.5c7.8,6.7,14.2,10.8-0.4,13.7c-14.5,3-40.7,1.1-45.9-10.1
					C223.5,542.2,223.5,542.2,223.5,542.2z"/>
				<g>
					<path class="st1" d="M310.8,488.5c0,0-78.3,25.4-87.3,53.7c0,0,0.4,12.7-7.5,27.2v5.6c0,0,8.2-19,12.7-21.6
						C228.8,553.4,211.2,528.7,310.8,488.5z"/>
					<path class="st1" d="M216.1,569.4c0,0-12.1,18.3-5.2,40.7l3.1-0.8c0,0-3-24.6,3.3-37C223.6,559.9,216.1,569.4,216.1,569.4z"/>
				</g>
			</g>
			<path class="st3" d="M222.6,658.5c30.3,0,54.8-24.5,54.8-54.8H167.8C167.8,634,192.3,658.5,222.6,658.5z"/>
			<path class="st4" d="M236.1,658.1c-2.2,0.3-4.5,0.4-6.8,0.4c-30.3,0-54.8-24.5-54.8-54.8h13.6C188.1,631.7,209,654.7,236.1,658.1
				z"/>
			<path class="st3" d="M278.2,661.3H167l0,0c0-3.7,3-6.8,6.8-6.8h97.6C275.1,654.5,278.2,657.6,278.2,661.3L278.2,661.3z"/>
			<rect x="166" y="603.7" class="st5" width="112.6" height="1.7"/>
		</g>
		<g>
			<path class="st6" d="M764.7,642.7c0,0,1.1,18.3,4.7,18.6c0.5,0,18,0,18,0l22.3-0.1c0,0-0.1-5.4-6.7-6.5
				c-6.5-1.1-17.5-5.7-21.4-14.4C777.4,631.3,764.7,642.7,764.7,642.7z"/>
			<path class="st4" d="M752.8,426.1c0,0,10.5,6,13.5,6c3,0,14.5-2.2,17.8-0.6c3.2,1.7,9.1,8.3,10.2,10.5c2,3.9-7.9,2.2-12.6-1.1
				c-0.7-0.5-1.5-0.7-2.3-0.5c-2.4,0.5-7.5,1.4-9.9,0.5c-3.3-1.2-20.5-2.6-20.5-2.6L752.8,426.1z"/>
			<path class="st7" d="M672.5,344.4c0,0,10.9,77.7,29,84.7c8.9,3.4,48.4,11.2,60.1,12c0,0,2.9-2.3,2.2-11.8
				c0,0-41.4-15.2-47.2-23.4c-8.7-12.3,5.4-50.2-5.5-61.8C700.1,332.6,681.6,327.6,672.5,344.4z"/>
			<path class="st8" d="M676.2,508.2c3.2,5.4,6.9,10.5,10.7,15.3c11.8,14.8,24.5,27.1,26.8,38.6c0.4,2.3,1.1,4.8,2.1,7.4
				c0.9,2.6,2.1,5.4,3.4,8.3c5,10.8,12.4,23,19.9,34c12.9,19.1,25,35,25,35l22.2-0.9c-0.9-2.2-10.6-28.6-23.5-60.7
				c-5.3-13.1-10.9-27-16.2-40.4c-0.7-1.8-1.4-3.6-2.1-5.3c-1.6-4.1-3.3-8.1-4.9-12.1c-12.2-30.2-21.8-54.3-21.8-54.3
				s-48.6-18.4-53.7-6.5C659.8,476.4,663.1,486,676.2,508.2z"/>
			<path class="st6" d="M713.3,590.4c0,0-15.4,9.9-13.9,13.1c0.2,0.4,8.7,15.7,8.7,15.7l11,19.4c0,0,4.6-2.8,2.4-9
				c-2.2-6.3-3.5-18,2.1-25.7C729.5,595.9,713.3,590.4,713.3,590.4z"/>
			<path class="st9" d="M720.8,607.8c0,0-9.6-8.5-11.4-14.8c0,0,39.8-47.6,48.4-58.3c0.4-0.5,0.3-1-0.2-1.6
				c-6.5-7.3-78.9-22.3-88.3-37c-3.3-5.1-5.1-9.9-6.1-14.1c-2.1-9-0.4-15.2-0.4-15.2l72.3-2.1c0,0,60.2,37.5,67,63
				C808.8,553.4,720.8,607.8,720.8,607.8z"/>
			<path class="st10" d="M757.7,533.2c-6.5-7.3-78.9-22.3-88.3-37c-3.3-5.1-5.1-9.9-6.1-14.1V473l30.7-4.8c0,0,8.7,26.8,34.5,36.8
				C752.6,514.4,757.2,531.1,757.7,533.2z"/>
			<path class="st4" d="M715.3,339.5c-14.6,3.8-38.8-9.8-38.8-9.8s9.4-6.3,12.9-20.2c0.2-0.7,0.3-1.4,0.5-2.2
				c1.5-0.3,4.4-0.9,7.5-1.6l11.2,10c0,0-0.3,4.2-1.7,11.3c-0.2,1.2-0.5,2.6-0.8,4C712,334.8,715.3,339.5,715.3,339.5z"/>
			<path class="st3" d="M660.9,400.1c2.1,28.2-0.7,71,1.7,78.4c2.1,6.4,25.4,2.6,34.7,0.5c3.5-0.8,7.6-1.9,11.9-3.3
				c12-3.7,25.2-9.1,26.6-13c0.1-0.2,0.1-0.3,0.1-0.5c0.1-0.6,0.1-1.1,0-1.7c-0.5-2-2.3-4.2-2.5-9.2c-0.2-5.6-0.2-12.1-0.4-19.2
				c0-0.8,0-1.7-0.1-2.5l0-0.3c0-0.2,0-0.3,0-0.5c-0.2-7.9-0.6-16.1-1.1-24.3c-0.3-5.1-0.7-10.2-1.1-15.1
				c-1.1-12.6-2.5-23.8-4.3-30.9c-3.1-11.6-9.8-19.1-16-24.6l-4.4-3.8c-5,1.1-10.8,0.4-16.1-2.1c-5.7-2.7-7.7-4.7-8.7-3.9
				C668,334.4,658.5,365.7,660.9,400.1z"/>
			<path class="st7" d="M709.3,475.7c12-3.7,25.2-9.1,26.6-13c0.1-0.2,0.1-0.3,0.1-0.5c0-0.6,0-1.1,0-1.7c-0.5-2-2.3-4.2-2.5-9.2
				c-0.2-5.6-0.2-12.1-0.4-19.2c0-0.8,0-1.7-0.1-2.5l0-0.3c0-0.2,0-0.3,0-0.5l-48.7-62C684.3,367,651.6,435.2,709.3,475.7z"/>
			<path class="st11" d="M708.5,315.8c0,0-0.3,4.2-1.7,11.3c-10.9-3.5-15.8-13.4-17.5-17.5c0.2-0.7,0.3-1.4,0.5-2.2
				c1.5-0.3,4.4-0.9,7.5-1.6L708.5,315.8z"/>
			<path class="st4" d="M709.9,322.1c0,0-23.8-4-21.1-18.7c2.7-14.8,1.4-25.2,16.7-23.3c15.3,1.9,17.2,8.1,17.5,13.2
				C723.4,298.4,716.2,322.7,709.9,322.1z"/>
			<g>
				
					<rect x="812.4" y="392.5" transform="matrix(-0.951 -0.309 0.309 -0.951 1456.9288 1073.4507)" class="st1" width="2.2" height="57.7"/>
				
					<rect x="745.1" y="444.9" transform="matrix(-0.9998 -2.134887e-02 2.134887e-02 -0.9998 1541.0225 909.7941)" class="st1" width="60.6" height="3.6"/>
			</g>
			<path class="st4" d="M746.3,450.7c0,0,19.5,5.1,26.8,4.6c7.3-0.5,13.4-4,14.3-5.8c0.9-1.8,2.8-5-2.1-4.4c-5,0.6-11.8,1.6-12,0.7
				c-0.2-1,4.1-0.9,4.1-0.9s1.3-1.9-0.3-1.9c-1.6-0.1-6.4-1.4-8.1-0.5c-1.8,0.9-3.4,4.1-4.7,4c-1.3-0.1-16.3-6.8-16.3-6.8
				L746.3,450.7z"/>
			<path class="st3" d="M677.3,347.6c0,0,2.3,78.4,19.5,87.4c8.5,4.4,46.9,16.5,58.4,18.6c0,0,3.1-2,3.4-11.5
				c0,0-39.4-19.7-44.4-28.5c-7.3-13.2,10.9-49.3,1.3-62C706,338.9,688.2,331.9,677.3,347.6z"/>
			<path class="st12" d="M689.3,309.5c0,0-0.3-5.1,2.9-8c0,0-1.1-5.1,0.9-5.9c2-0.8,2.4,3.4,3.3,2.8c0.9-0.7,5-3.9,6.8-8.5
				c1.8-4.7,17.9,1,19.7,1.8c1.9,0.8,7.9-2.3,9.1-4.8c0,0-3.3-2.7-4.9-4.7c-1.5-2-12.1-15.6-26.8-11.7
				c-14.7,3.9-16.7,10.9-15.9,16.9C685.3,293.5,683.3,307.5,689.3,309.5z"/>
		</g>
		<g>
			<path class="st13" d="M242.4,339.7l12.7-1.2c1-0.1,2,0.5,2.4,1.4l9.6,23.1c0.6,1.4-0.4,3.1-1.9,3.2l-13.2,1.3
				c-1,0.1-2-0.5-2.4-1.5l-9.1-23.1C239.9,341.4,240.9,339.8,242.4,339.7z"/>
			<path class="st12" d="M403.2,644.2l-6.7,3.6c0,0-36.4-38.6-45.1-75.6c-1.6-6.6-2.2-13.1-1.5-19.3c0,0-0.5-1.7-1.5-4.6
				c0-0.1-0.1-0.3-0.1-0.4c-0.4-1.3-0.9-2.8-1.4-4.6c-1.8-5.6-4.2-13.3-6.9-22c-6.3-20.1-20.8-65.3-27-84.1l44.5-16.1
				c0,0,5.1,11.5,12.3,42.9c1.1,4.1,2.2,8.6,3.3,13.5c1.2,5.6,2.3,11.7,3.2,18.3c1.6,11.2,2.6,23.7,2.7,37.5
				c0,5.6-0.1,11.4-0.4,17.4c-0.2,4.4,0.4,10.3,1.6,16.9C385.7,598,403.2,644.2,403.2,644.2z"/>
			<path class="st13" d="M427.6,661.3h-36c0,0-1.3-5.7,1-9.6c2.1-3.5,1.3-5.4-0.3-8.3c1.6,0.7,3.7,1.3,6.1,1.1
				c1.8-0.1,3.7-0.9,5.3-1.9c1.5,1.8,8.2,9.3,10.2,10.8C416.4,655.1,426.9,654.5,427.6,661.3z"/>
			<path class="st13" d="M376.2,495.7l-27.9,52.1c-0.4-1.3-0.9-2.8-1.4-4.6c-1.8-5.6-4.2-13.3-6.9-22c-6.3-20.1-20.8-65.3-27-84.1
				l44.5-16.1c0,0,5.1,11.5,12.3,42.9c1.1,4.1,2.2,8.6,3.3,13.5C374.2,483,375.3,489.1,376.2,495.7z"/>
			<path class="st14" d="M255.1,380.8c-0.2,0.2-10.9-10.7-16.6-16.7l5.7-3.5l31.1,19.5L255.1,380.8z"/>
			<path class="st13" d="M312.2,650c0,0-0.8,6.1,1.5,11.3h14.9c0,0,0.1-4.5-3.7-10C321.1,645.7,312.2,650,312.2,650z"/>
			<path class="st15" d="M341.5,252.4c0.2-1,2.7-11.2,18.6-9c0,0-7.9-0.4-9.8,2.7c0,0,6-3.3,10.1-1.2c4.1,2.1,5.3,10.1,4.9,12.5
				c-0.4,2.5-4.2,10-7,10.2c-1.1,0.1-2.3-0.2-3.3-0.6c0.5,1.3,1,2.6,1.5,4.1c4,14-4.6,25.5-9.7,23.1c-3.3-1.5-5.2,4.2-5.2,4.2
				l-28.5-32.6C312.9,266.1,329.5,243,341.5,252.4z"/>
			<path class="st14" d="M312.4,339.8c3.7,2.6,8.4,4.7,14.2,6c21.9,5.1,30.3-13.5,33.5-26.2c-3-1.7-5.8-2.1-7.4-2.3
				c-1.6-0.2-3.2-0.3-4.6-0.4c-2.5-1.9-6.1-9.6-6.9-21.6l-1,0.3l-17.3,4.7c0,0,0.8,5.5,1.2,10.7c0.3,4.1,0.3,7.9-0.4,8.9
				c-1.3,0.3-2.2,0.5-2.2,0.5s0,0,0,0C321.2,320.9,316.2,329.1,312.4,339.8z"/>
			<path class="st16" d="M322.8,300.4c0,0,0.8,5.5,1.2,10.7c9.8-1,14.3-10.3,16.1-15.4L322.8,300.4z"/>
			<path class="st14" d="M319.9,305.6c0,0,23.2-1.3,22.2-15.7c-1-14.4,1.3-24.3-13.6-24.1c-14.9,0.2-17.4,5.9-18.2,10.8
				C309.5,281.5,313.8,305.5,319.9,305.6z"/>
			<path class="st15" d="M310.4,268.5c3.3-4.6,6.1-3.8,7.7-2.6c12.2-7.9,21.1,1.8,21.1,1.8c2.3,10.3,10.2,15.7,10.2,15.7
				s-4,2.9-14,1.1c-3-0.6-5.8-2.5-8.3-4.9c4.4,6.3,10.1,10.7,10.1,10.7c-12-4.5-17.9-20.4-18.4-22.1c-1.3,1.4-3.9,4.3-4.6,7.1
				c-0.9,3.8-0.9,11.4-3.1,11.3C311.1,286.5,305.5,275.4,310.4,268.5z"/>
			<path class="st14" d="M316.1,319.3c0,0,37.8-9.2,54.3,4.4l-8.2,114.6l-74-17.9c0,0,2.1-7.3,16.3-26.5
				C318.7,374.6,312.5,346.3,316.1,319.3z"/>
			<path class="st12" d="M338.2,425.6c0,0,0,0.4-0.1,1.1c0,0.3-0.1,0.7-0.1,1.2c-0.3,3-0.9,8.7-1.7,16.1c-2,19.4-5.2,50.7-7.4,75.3
				c-1.7,19.3-2.8,34.5-2.2,37c1.8,7.4,0,95.5,0,95.5c-6.3,3-15.8,0-15.8,0s-16.7-79.4-14.4-90.4c2.3-11-1.6-20.5-1.6-20.5
				c-13-60.6-11.6-94.1-9-110.2c0.8-4.7,1.6-7.9,2.2-9.8c0.5-1.7,0.9-2.4,0.9-2.4C317.7,410.7,338.2,425.6,338.2,425.6z"/>
			<path class="st13" d="M362.2,438.3c-8.8,3.7-17.6,5.3-25.9,5.6c-7.6,0.3-14.8-0.6-21.3-2c-14.2-3.1-25-8.8-29-11.3
				c0.8-4.7,1.6-7.9,2.2-9.8c8.7-6.2,30.3-0.3,48,6.3c0.6,0.2,1.3,0.5,1.9,0.7C351.4,433,362.2,438.3,362.2,438.3z"/>
			<path class="st3" d="M375.5,356.4c-1.8,13.8-9.1,30.7-11.7,39.7c0,0,4.4,31.5,0.2,40.2c-0.5,1-1.1,1.7-1.8,2
				c-15.4,6.7-75.5,0.2-78-19.2c-0.9-7,22.9-31.8,24.3-34.8c0.6-1.2,1.2-5.3-1.6-13.6c-4,12.2-11.3,26.3-18.6,28.7
				c-8.1,2.6-40-21.2-40-21.2s-0.2-2.9,3.9-5.6c2.6-1.8,8.6-2.4,8.6-2.4l20.4,9.1c2.6-4.4,8.9-34.7,16.1-48.4
				c5.4-10.3,19.7-11.8,19.7-11.8s6,9.4,20.4,8.1c14.4-1.3,17-10.2,17-10.2s12.8,1.7,16.7,4.9C371.6,322.6,377.9,338.3,375.5,356.4z
				"/>
			<path class="st7" d="M363.8,396.1c0,0,4.4,31.5,0.2,40.2c-11.2-5.6-25.9-17.8-21.4-36.8c6.5-27.6,33-43.1,33-43.1
				C373.7,370.2,366.4,387.1,363.8,396.1z"/>
			<path class="st14" d="M354.2,374.9c0,0-16,2.3-17.3,3.5c-1.3,1.2-5.7,8.1-5.1,10.5c0.5,2.4,0.5,4.9,1.5,4.7
				c1-0.2,4.2-6.3,5.4-6.6c1.2-0.3,2.2-1.1,2.3-0.6c0.1,0.5-2.5,3.1-2.3,3.9c0.1,0.7,2.2-0.1,3.1-1.5c0.9-1.4,3.2-2.1,3.6-3
				c0.3-0.9,1.9-3.8,4.1-3.7C351.5,382.3,354.2,374.9,354.2,374.9z"/>
			<polygon class="st14" points="369.7,374.3 354.2,374.9 348.8,382.2 370,382.9 			"/>
			<path class="st3" d="M354.2,317.2c0,0,18.6,2.2,23.7,10.2c6.5,10.1,29.3,43.4,28.8,53.5c0,0-14.2,5.7-52.4,2.6
				c0,0-0.7-5.8,7.3-10.4c0,0,20.5-2.8,22.8-4.8L369.1,352L354.2,317.2z"/>
			<path class="st12" d="M239.6,339.9l12.7-1.2c1-0.1,2,0.5,2.4,1.4l9.6,23.1c0.6,1.4-0.4,3.1-1.9,3.2l-13.2,1.3
				c-1,0.1-2-0.5-2.4-1.5l-9.1-23.1C237.1,341.6,238.1,340.1,239.6,339.9z"/>
			<path class="st14" d="M238.5,364.1c0,0-3.3-5.8-3.1-7.2c0.3-1.4,3.7-8,5.5-8.7c3.2-1.2,7.6-1.9,6.4,1.5c-0.8,2.2-4,5.4-3.5,6.4
				c0.6,1,0.3,4.5,0.3,4.5L238.5,364.1z"/>
		</g>
		<g>
			<path class="st0" d="M744,613.2c-4.5,29.1-34.3,47.7-64.8,47.7h-60.4l4.7-169.8c0,0,57.6-18.5,72.1-0.9
				c12.7,15.4,47.1,76.4,48.9,112.5C744.7,606.4,744.6,609.9,744,613.2z"/>
			<path class="st17" d="M583.7,509.1c0,0,81.5-41.6,96.9-14.4c8.2,14.4,30.7,72,32.4,108.1c1.6,35.1-28.8,58.1-60,58.1h-55.5
				L583.7,509.1z"/>
			<path class="st18" d="M599.1,532.2c-0.7,3.5-7.3,6.8-17.1,9.7c-1.7,0.5-3.5,1-5.5,1.5c-33.3,8.5-92.3,13.3-97.9,10.7
				c-7.8-3.5-55.5-172.9-55.5-172.9s45.5-1.7,81.7-2.5c12.4-0.3,23.6-0.5,31.6-0.4c1,0,1.9,0.1,2.7,0.2c3.5,0.5,6,1.9,8,4.1
				c5.8,6.3,7.3,18.6,12.7,32.3c5.3,13.5,11.9,30.4,18.1,47.1c1.6,4.3,3.2,8.6,4.7,12.8c0.4,1.2,0.9,2.4,1.3,3.6
				C593.1,504,600.2,526.4,599.1,532.2z"/>
			<path class="st18" d="M744,613.2c-4.5,29.1-34.3,47.7-64.8,47.7h-29.6C669.4,647.5,687.3,606.3,744,613.2z"/>
			<path class="st2" d="M583.9,478.3c-1.5-0.2-3.5-0.6-5.7-0.9c-0.5-0.5-0.8-0.9-1-1.4c-0.9-2-0.3-7.6,0.7-14
				c-6.2-16.7-12.7-33.6-18.1-47.1c-5.4-13.7-6.8-26-12.7-32.3c-2-2.2-4.6-3.6-8-4.1c-4.8,0.1-9.9,0.2-15.1,0.2
				c-1.9,3.7-5.1,7.2-10.6,10.1c-24.7,13-6.4,39.8-6.4,39.8c0.2,0.1,9.8,19.3,9.8,19.3c0-1.3,1.3-3.7,3.5-6.8
				c1.6,11.4,4.3,23.1,7.5,31.5c-1.7,8.8-6.2,22-8.6,32.1c-1.9,8-2.5,14.1,0.7,14.4c0.4,0,0.8,0,1.2,0c-0.2,2.8,0.3,5.7,1.9,8.8
				c6.2,12,36,14.1,59,14.2c9.8-2.9,16.4-6.2,17.1-9.7C600.2,526.4,593.1,504,583.9,478.3z"/>
			<path class="st19" d="M696.5,634.8c-11.7,16.2-29.5,26.6-49.5,26.3l-85.6,0l-41,0l46.2-152c0,0,116.8-11.6,131.2,3.9
				c6.7,7.2,10.4,39.8,12.5,72.6C711.5,604.1,706.1,621.5,696.5,634.8z"/>
			<path class="st17" d="M696.5,634.8c-11.7,16.2-29.5,26.6-49.5,26.3l-85.6,0c10.1-8.5,41.8-32.5,75.7-31.3
				C662.8,630.6,683.2,630.3,696.5,634.8z"/>
			<g>
				<path class="st20" d="M591.2,402.7c0,0,7.1,10.5,11.2,32.7c3.6,19.4,6.7,26.5,11.8,30.5c5.1,4,33.7,15.7,33.7,15.7l-2.1,5
					c0,0-41.9-5.7-46.6-12.7c-4.7-7-22.7-48.4-21.3-57.9C579.3,406.5,591.2,402.7,591.2,402.7z"/>
				<g>
					<path class="st14" d="M693.8,633.9c-0.4,4.1,5.3,5.1,11.9,5.4c6.6,0.3,4.6,1.7,13.6,3.3c9,1.6,12.7-0.8,13.3-2.1
						c0.6-1.1-3.6-2.8-8.1-4.7c-0.6-0.2-1.1-0.5-1.7-0.7c-5-2.2-7.9-6.7-11.8-10.9c-3.7-4-7.3-16.7-7.3-16.7l-12.3-2.6
						c0,0,3.4,11.4,4.6,16.3c0.7,2.9-0.3,6.1-1.3,8.5C694.5,631.1,694,632.5,693.8,633.9z"/>
					<path class="st21" d="M705.7,639.3c6.6,0.3,4.6,1.7,13.6,3.3c9,1.6,12.7-0.8,13.3-2.1c0.6-1.1-3.6-2.8-8.1-4.7l-0.1,0.1
						c0,0-6.4,2.2-13.7,0.2c-6-1.6-11.8-5.2-15.9-6.3c-0.5,1.3-1,2.7-1.1,4.1C693.5,638,699.2,639,705.7,639.3z"/>
				</g>
				<path class="st6" d="M571.6,488.4c0,0,81.6-6.1,96.9,3.6c15.4,9.7,40,122.6,40,122.6s-1.5,1.2-4.9,1.6
					c-3.2,0.3-10.1-1.5-10.1-1.5s-35.4-50.5-37.9-63.2c-2.5-12.7-1.9-24.1-7.6-24.4s-76.4,8.6-87.1-10.3
					c-10.7-18.9-1.9-37.5-1.9-37.5L571.6,488.4z"/>
				<g>
					<path class="st14" d="M662.6,647c-0.4,4.1,5.3,5.1,11.9,5.4c6.6,0.3,4.6,1.7,13.6,3.3c9,1.6,12.7-0.8,13.3-2.1
						c0.6-1.1-3.6-2.8-8.1-4.7c-0.6-0.2-1.1-0.5-1.7-0.7c-5-2.2-7.9-6.7-11.8-10.9c-3.7-4-7.3-16.7-7.3-16.7l-12.3-2.6
						c0,0,3.4,11.4,4.6,16.3c0.7,2.9-0.3,6.1-1.3,8.5C663.3,644.2,662.8,645.6,662.6,647z"/>
					<path class="st21" d="M674.5,652.4c6.6,0.3,4.6,1.7,13.6,3.3c9,1.6,12.7-0.8,13.3-2.1c0.6-1.1-3.6-2.8-8.1-4.7l-0.1,0.1
						c0,0-6.4,2.2-13.7,0.2c-6-1.6-11.8-5.2-15.9-6.3c-0.5,1.3-1,2.7-1.1,4.1C662.3,651.1,667.9,652.1,674.5,652.4z"/>
				</g>
				<path class="st9" d="M555.7,493.4c0,0,72.4,3.4,87.4,13.7c15,10.3,35.2,124,35.2,124s-1.6,1.2-5,1.4c-3.2,0.2-10-1.9-10-1.9
					s-33.4-51.8-35.4-64.6c-2-12.8-0.9-24.1-6.6-24.7c-5.7-0.5-76.7,5.6-86.7-13.6C524.6,508.5,555.7,493.4,555.7,493.4z"/>
				<path class="st22" d="M581.5,334c-3.2-2.1-7.2-2.6-10-2.6c0.8-0.7,2.2-0.9,2.2-0.9c-1.7-0.4-5.7,1.1-5.7,1.1
					c-23.5-10.9-29.7,24.4-29.8,32.7c0,8.3-0.6,17.8-13.2,24.4c-24.7,13-6.4,39.8-6.4,39.8c0.2,0.1,9.8,19.3,9.8,19.3
					c-0.2-6.7,33-39.9,49.8-49.4c4.3-5.5,6.4-15.6,6.5-16.4c-1.2,8-2.9,12.5-4.3,14.9C594.9,385.3,590,339.6,581.5,334z"/>
				<path class="st14" d="M552.6,390.6c0,0,6.4,0.3,13.1,0.9c4.6,0.4,9.5,0.9,12.1,2c6.4,2.7,5.7,14-7.7,11.9
					C556.7,403.3,551.7,394,552.6,390.6z"/>
				<path class="st14" d="M577.2,398.9c0.1,0,1.9,9.7-6.9,9.3c-5.8-0.3-18.2-7.2-17.1-12.2c0.5-2.3,4.9-8.4,5.7-22.3l1,0.3l17.6,4.7
					c0,0-0.8,5.6-1.1,10.9C576.3,394.1,576.3,398.3,577.2,398.9z"/>
				<path class="st20" d="M577.7,378.7c0,0-0.8,5.6-1.1,10.9c-10-0.9-14.7-10.4-16.5-15.6L577.7,378.7z"/>
				<path class="st22" d="M558.4,372c0,0-4.7-8.6-5.5-15.8c-0.6-5.1,3.3-23.7,21.9-19.7c0,0,5.4,0.9,10.3,4.7
					c3.9,3,9.4,9.4,1.7,25.3l-2.1,5.4L558.4,372z"/>
				<path class="st14" d="M580.7,384c0,0-23.7-1.2-22.7-15.9c1-14.7-1.4-24.8,13.7-24.7c15.2,0.1,17.7,5.9,18.6,10.9
					C591.2,359.3,586.9,383.9,580.7,384z"/>
				<path class="st22" d="M582.5,343.7c0,0-7.6,16.9-17.7,18.7c-10.1,1.9-14.2-1.1-14.2-1.1s8-5.5,10.3-16
					C560.9,345.4,578.2,335.2,582.5,343.7z"/>
				<path class="st22" d="M580.8,345c0,0,4.6,4.2,5.5,8c0.9,3.8,0.9,11.6,3.2,11.5c0,0,5.7-11.4,0.6-18.4
					C584.8,338.7,580.8,345,580.8,345z"/>
				<path class="st9" d="M604.4,489.6c-1.9,2.3-7.9,3-14.3,4c-5,0.8-10.3,1.9-14.1,4.1c-8.5,5-36.4,21.9-44.6,21.2
					c-3.2-0.3-2.6-6.3-0.7-14.4c3-12.7,9.3-30.3,9.3-37.9c0-4.2,1.4-14.1,3.2-25.4c0.2-0.9,0.3-1.8,0.5-2.8
					c3.7-22,8.8-47.9,8.8-47.9s5.7,12.4,16.7,12.4c11,0,8.5-9.4,8.5-9.4s10.1,1.2,12.5,3.8c2.4,2.6,8.4,13.7,9.6,16.7
					c0,0,0.2,3.8-9.3,5.7c0,0,2.3,10.4,2.6,17.4c0.2,5.1-3.5,21.2-4.6,31.3c-0.4,3.5-0.4,6.3,0.1,7.6c0.7,1.6,3.1,3.2,5.8,4.8
					C600,483.9,606.7,486.9,604.4,489.6z"/>
				<path class="st6" d="M594.6,480.7c6.1,10.4-16.6,13.6-20.3,15.8c-8.5,5-34.6,23.2-42.8,22.4c-3.2-0.3-2.6-6.3-0.7-14.4
					c3-12.7,9.3-30.3,9.3-37.9c0-4.2,1.4-14.1,3.2-25.4l9.8-9.4c0,0,10.5,27.2,20.6,31.7c5.3,2.3,10.8,3.9,14.8,4.8
					c-0.4,3.5-0.4,6.3,0.1,7.6C589.5,477.5,591.9,479.2,594.6,480.7z"/>
				<path class="st14" d="M549.6,398.8c0,0-8.4-5.1-16.5,4.6c-8.1,9.7,5.8,79,17.8,82.5c13.4,4,52.1-0.6,52.1-0.6l-0.7-6
					c0,0-41.2-7.9-42.9-10.1C557.6,466.9,553.9,399.9,549.6,398.8z"/>
				<path class="st9" d="M552.6,390.6c0,0-17.3,1.6-22.3,7.2c-5,5.7-6.5,21.1-6.5,21.1s15.2,12.3,33.5,7.5L552.6,390.6z"/>
				<g>
					<rect x="607" y="488.5" class="st23" width="22.8" height="2.7"/>
					<path class="st23" d="M624.9,490.8c0.2-0.9,21-33.5,21-33.5h46.2l-23.2,32.6L624.9,490.8z"/>
					<path class="st22" d="M626.9,491.2c0.2-0.9,21-33.8,21-33.8h44.2l-22,33.8H626.9z"/>
					<path class="st23" d="M665.8,474.4c-0.5,1.3-1.9,2.4-3.2,2.4c-1.3,0-2-1.1-1.6-2.4c0.5-1.3,1.9-2.4,3.2-2.4
						S666.3,473,665.8,474.4z"/>
				</g>
				<path class="st14" d="M598.8,478.8c0,0,13.4-2.6,14.9-1.9c1.5,0.6,9.9,8.2,9.1,9.7c-0.9,1.5-4.3,2.6-8.2,1.3
					c-3.9-1.3-12.3-1.9-13.8-3.9C599.3,482.1,598.8,478.8,598.8,478.8z"/>
			</g>
			<path class="st0" d="M625.5,614.7c-4.9,28.2-31.8,46.2-59.3,46.2h-55.5l4.3-169.8c0,0,53-18.5,66.3-0.9
				c11.7,15.4,43.3,76.4,44.9,112.5C626.5,606.9,626.2,610.9,625.5,614.7z"/>
			<path class="st18" d="M625.5,614.7c-4.9,28.2-31.8,46.2-59.3,46.2h-44.4C542.6,646.8,570.6,607.8,625.5,614.7z"/>
			<path class="st19" d="M539.4,660.8c-0.4,0-0.8,0.1-1.2,0.1c-0.9,0-1.8,0.1-2.6,0.1c-0.3,0-0.6,0-0.9,0h-55.5l0,0
				c-1.1,0-2.1,0-3.2,0c-5.7,0.1-11.7,0.1-17.2,0.2c-0.9,0-1.8,0-2.7,0c-0.3,0-0.7,0-1,0c-5.5,0-10.3,0.1-13.8,0
				c-4.9,0-9.4-0.4-13.7-1.1c-5.6-0.9-10.6-2.3-15.3-4.4c-1.7-0.7-3.3-1.6-4.9-2.5c-2.1-1.2-4.1-2.6-6-4.1c-4.9-3.9-9.2-8.9-12.8-15
				c-2.5-4.3-4.7-9.1-6.7-14.5c-2.4-6.8-4.4-14.5-5.8-23.3c-2.1-12.5-3.4-27-3.7-43.8c-0.1-6.8-0.2-13.9,0-21.4
				c0.2-12,0.7-25,1.6-39c1.2-19.7,3.1-41.4,5.6-65.3c2.2-21.8,4.8-37.1,8.6-40.6c5.6-5.1,17.2-7.2,25.2-8c0,0,0,0,0,0
				c5-0.5,8.7-0.6,8.7-0.6c9.9,0,18.6,7.1,21.8,17.6c6.4,21.4,17.9,59.7,29.9,99.8c0.1,0.2,0.1,0.4,0.2,0.6c0.7,2.3,1.4,4.6,2.1,6.9
				c0.1,0.4,0.2,0.7,0.3,1.1c0.7-0.3,1.4-0.6,2.1-0.9c0,0,0,0,0.1,0c2.9-1.3,6.1-2.7,9.6-4.1h0c1.8-0.7,3.7-1.5,5.6-2.2
				c5.5-2.1,11.4-4.2,17.4-6c2.7-0.8,5.3-1.5,8-2.2c3.4-0.8,6.8-1.6,10.1-2.1c0.1,0,0.2,0,0.3,0c0.4-0.1,0.8-0.1,1.2-0.2
				c14.3-2.1,26.6-0.6,31.7,8.4c8.2,14.5,30.7,72.2,32.4,108.4C596.3,636,569,658.6,539.4,660.8z"/>
			<path class="st0" d="M450.4,510.4c0,0-28.5-116.1-30.6-125.9c-0.9-4.3-3.7-5.9-6.6-6.3c5-0.5,8.7-0.6,8.7-0.6
				c9.9,0,18.6,7.1,21.8,17.5c6.9,22.9,19.6,65.1,32.5,108C475.5,503.2,450.4,510.4,450.4,510.4z"/>
			<path class="st17" d="M555.4,566.3c-7.6-12.6-1.2-15-2.4-43.2c-1.2-28.2-14.3-25.9-19.8-31.4c-1-1-1.8-3.1-2.6-5.8
				c-0.4,0.1-0.8,0.1-1.2,0.2c-0.1,0-0.2,0-0.3,0c-3.3,0.5-6.7,1.2-10.1,2.1c-2.7,0.7-5.3,1.4-8,2.2c-6,1.8-11.9,3.9-17.4,6
				c-1.9,0.7-3.8,1.5-5.6,2.2c-4.7,29.6-12,162.4-12,162.4c0.1,0.1,0.1,0.1,0.2,0.2c6-0.1,12.4-0.1,18.5-0.2c0.9,0,1.7,0,2.6,0l0,0
				h41.9c0.1,0,0.1-0.1,0.2-0.1c0,0,0.1,0,0.1-0.1c11.3-7,8.7-21,6.1-29.8c-1.1-9.4-5.2-20.4-8.6-30.6c1.1-3.1,2.5-4.9,8.9-7.2
				c7-2.6,8.9-13.7,8.9-13.7c1.9,5-2.4,11.8-2.5,12C552.4,591.2,562.9,578.7,555.4,566.3z"/>
		</g>
		<g id="girl_2_5_">
			<path class="st16" d="M461.8,509c0,0-42.3,18.4-49.9,18.1c-7.7-0.3-55-14.4-55-14.4l1.2,8.1c0,0,36.5,21,49.2,22.2
				c12.6,1.2,55.5-11.3,59.7-13.9C471.1,526.5,473.8,511.7,461.8,509z"/>
			<path class="st13" d="M468.1,441.3c0,0,15.6-3,23.4,2.7c14.1,10.3,14.8,45.7,20.1,51c5.3,5.3,18,3,19.1,30.3
				c1.1,27.3-5.1,29.6,2.3,41.8c7.4,12.2-3.1,24.4-3.1,24.4s4.3-6.7,2.5-11.6c0,0-1.8,10.7-8.6,13.2c-6.8,2.5-7.8,4.4-8.9,8
				c0,0-58.1-29.8-58.2-50.9c-0.1-21.1-11.4-42-5.8-51.2c0,0-2.5,3.9-2.8,8.3c0,0-3.3-6.4,2.5-12.4c5.8-6-6.8-18.3-4.9-32.7
				C446.8,452.5,453.7,441.7,468.1,441.3z"/>
			<path class="st14" d="M456.6,529.1c3.7,2.6,8.4,4.7,14.2,6c21.9,5.1,30.3-13.5,33.5-26.2c-3-1.7-5.8-2.1-7.4-2.3
				c-1.6-0.2-3.2-0.3-4.6-0.4c-2.5-1.9-6.1-9.6-6.9-21.6l-1,0.3l-17.3,4.7c0,0,0.8,5.5,1.2,10.7c0.3,4.1,0.3,7.9-0.4,8.9
				c-1.3,0.3-2.2,0.5-2.2,0.5s0,0,0,0C465.4,510.2,460.4,518.5,456.6,529.1z"/>
			<path class="st16" d="M467,489.8c0,0,0.8,5.5,1.2,10.7c9.8-1,14.3-10.3,16.1-15.4L467,489.8z"/>
			<path class="st14" d="M464.1,494.9c0,0,23.2-1.3,22.2-15.7c-1-14.4,1.3-24.3-13.6-24.1c-14.9,0.2-17.4,5.9-18.2,10.8
				C453.7,470.8,458,494.9,464.1,494.9z"/>
			<path class="st13" d="M454.6,457.8c3.3-4.6,6.1-3.8,7.7-2.6c12.2-7.9,21.1,1.8,21.1,1.8c2.3,10.3,10.2,15.7,10.2,15.7
				s-4,2.9-14,1.1c-3-0.6-5.8-2.5-8.3-4.9c4.4,6.3,10.1,10.7,10.1,10.7c-12-4.5-17.9-20.4-18.4-22.1c-1.3,1.4-3.9,4.3-4.6,7.1
				c-0.9,3.8-4.7,9.6-7,9.5C451.5,474.2,449.7,464.7,454.6,457.8z"/>
			<path class="st22" d="M510.9,576.3c2.1-10.7,8.9-53.5,2.1-67.3c-2.5-5-12.1-5.4-22.7-5c-3.3,2.1-15.8,10.1-21,9.1
				c-0.1,0-0.2,0-0.3-0.1c-2.4-0.6-3.3-2.3-1.3-3.8c0,0-5.2-0.5-11.7,0.7c-3.7,0.7-13.6,5.8-13.6,5.8s5,9,12.3,12.1
				c-1.3,11.2,0.6,16.1,12.2,42c9.8,21.8-1.3,41.5-1.3,41.5s57.7,46.4,58.1,22.8C524,616.5,508.2,590,510.9,576.3z"/>
			<path class="st5" d="M462.8,662c-3.1-0.4-6-2.1-7.7-4.7c-0.3-0.4-0.6-0.9-0.9-1.3c-6.6-9.9-9.1-40.4-23.9-72.9
				c-3.6-7.9-16.5-9.3-20-18.3c0,0-8.7-29,16.6-29.8c25.3-0.9,67.7,80.6,68.4,89.1C495.9,632.3,511.9,667.5,462.8,662z"/>
			<path class="st23" d="M362.4,661.3h36c0,0,1.3-5.7-1-9.6c-2.1-3.5-1.3-5.4,0.3-8.3c-1.6,0.7-3.7,1.3-6.1,1.1
				c-1.8-0.1-3.7-0.9-5.3-1.9c-1.5,1.8-8.2,9.3-10.2,10.8C373.6,655.1,363.1,654.5,362.4,661.3z"/>
			<path class="st23" d="M507.1,520.2c0,0,4.7,42.6-25.7,51.5c-30.4,8.9-39-39.2-14.5-42.7C491.5,525.7,507.1,520.2,507.1,520.2z"/>
			<path class="st5" d="M409.4,543.3c-2.2,16.2-10.6,67.5-25.5,92.5c-4.8,8.1,12.1,12.6,12.2,12.6c2.3-0.6,6.1-4.2,7.8-5.8
				c12.1-10.9,36.7-41.8,36.7-66.6c0-12.1,0.2-35.2-8.6-41C426.6,531.4,410.3,536.9,409.4,543.3z"/>
			<path class="st3" d="M484.3,661.3c0,0-1.3-1.9-3.7-5.4c-2.8-4.2-5.8-12.4-9.5-23c-3.9-11.1-8.5-24.7-14.3-39
				c-1.8-4.4-3.7-8.8-5.7-13.3c-3.6-7.9-13.5-6.8-17-15.7c0,0-13.7-31,11.5-31.8c25.3-0.9,73.3,82.8,76.1,90.9
				C524.6,632.9,539.4,669.8,484.3,661.3z"/>
			<path class="st22" d="M388.8,661.3h36c0,0,1.3-5.7-1-9.6c-2.1-3.5-1.3-5.4,0.3-8.3c-1.6,0.7-3.7,1.3-6.1,1.1
				c-1.8-0.1-3.7-0.9-5.3-1.9c-1.5,1.8-8.2,9.3-10.3,10.8C400,655.1,389.5,654.5,388.8,661.3z"/>
			<path class="st7" d="M471.1,632.9c-3.9-11.1-8.5-24.7-14.3-39c1.5-10.8,4.8-20.2,10.2-24C467,570,480.3,611.2,471.1,632.9z"/>
			<path class="st3" d="M430.4,542.2c-2.2,16.2-5.2,68.6-20.1,93.7c-4.8,8.1,12.1,12.6,12.2,12.6c2.3-0.6,6.1-4.2,7.8-5.8
				c12.1-10.9,36.7-41.8,36.7-66.6c0-12.1-14.2-34.2-23-40.1C438.6,532.3,431.3,535.7,430.4,542.2z"/>
			<g>
				<path class="st23" d="M352.6,491.8l36.8-3.9c1.1-0.1,2.1,0.5,2.5,1.5l13.2,34.6c0.6,1.5-0.5,3.2-2.1,3.2l-36.6,1.5
					c-1,0-1.9-0.5-2.3-1.5l-13.5-32.2C350,493.6,351,491.9,352.6,491.8z"/>
				<path class="st22" d="M349.4,492.1l36.8-3.9c1.1-0.1,2.1,0.5,2.5,1.5l13.2,34.6c0.6,1.5-0.5,3.2-2.1,3.2l-36.6,1.5
					c-1,0-1.9-0.5-2.3-1.5l-13.5-32.2C346.8,493.9,347.8,492.3,349.4,492.1z"/>
				<path class="st23" d="M369.8,508.3c-0.5-1.2,0.2-2.2,1.4-2.2c1.2,0,2.6,1,3.1,2.2c0.4,1.2-0.2,2.2-1.4,2.2
					C371.6,510.5,370.2,509.5,369.8,508.3z"/>
				<path class="st23" d="M350.5,495.4c-0.2-0.6,0.1-1.1,0.7-1.1c0.6,0,1.3,0.5,1.5,1.1c0.2,0.6-0.1,1.1-0.7,1.1
					C351.4,496.5,350.7,496,350.5,495.4z"/>
			</g>
			<path class="st14" d="M504.3,509c0,0-51.1,18.8-58.7,18.4c-5-0.2-46.2-14.7-46.2-14.7l-3.7,7c0,0,40.1,25.8,51.1,25.7
				c21.8-0.3,58.5-13.6,62.7-16.2C513.6,526.5,516.3,511.7,504.3,509z"/>
			<path class="st14" d="M399.4,512.7c0,0-3.7-5.7-7.4-5.9c-3.7-0.2-10,2.5-12.2,2.9c-2.2,0.4-8.4,2.4-6.5,5.4
				c1.8,3,10.4,3.7,14.1,3c3.7-0.7,8.4,1.5,8.4,1.5L399.4,512.7z"/>
			<path class="st14" d="M393,507c0,0-5.9-2.7-7.5-3.2c-1.7-0.5-1.3,0-0.8,1.6c0.5,1.6,3.5,3.1,3.5,3.6C388.2,509.5,393,507,393,507
				z"/>
			<path class="st14" d="M353.2,509.7c0,0,3.7-5.8,4.9-6.1c3.7-0.7,3.7,4.1,2.9,7.3c-0.8,3.4-3.7,6.5-4.5,6.3
				C355.7,516.8,352.3,512.8,353.2,509.7z"/>
			<path class="st14" d="M353,510.9c0,0-1.2,6.6,5,10L353,510.9z"/>
			<path class="st24" d="M459.7,486.6c0,0,2.2-0.9,8.4-0.4c0,0-0.3,2.4-4.9,2.6C460.7,489.1,459.7,486.6,459.7,486.6z"/>
			<path class="st22" d="M478,518.3c0,0,4.6,14.5,20.2,17.7c0,0,25.9-8,13-25.6C511.2,510.4,498.5,500.9,478,518.3z"/>
		</g>
		<path class="st13" d="M1022.1,664H0.2c-0.6,0-1-0.5-1-1v-0.7c0-0.6,0.5-1,1-1h1021.9c0.6,0,1,0.5,1,1v0.7
			C1023.1,663.5,1022.7,664,1022.1,664z"/>
	</g>
</g>
</svg>
